<svg width="24" height="26" viewBox="0 0 24 26" fill="none" xmlns="http://www.w3.org/2000/svg">
<path fill-rule="evenodd" clip-rule="evenodd" d="M17.5136 1.46077L17.5148 2.3978C20.9581 2.66767 23.2327 5.01399 23.2364 8.61219L23.25 19.1444C23.2549 23.0675 20.7903 25.4812 16.8398 25.4875L7.18985 25.5C3.26399 25.505 0.768521 23.0337 0.763584 19.0994L0.750008 8.6909C0.745072 5.06896 2.93941 2.72889 6.38271 2.41279L6.38148 1.47576C6.38025 0.926039 6.78752 0.512497 7.33055 0.512497C7.87358 0.511247 8.28085 0.923541 8.28209 1.47327L8.28332 2.34783L15.6142 2.33783L15.613 1.46327C15.6118 0.913546 16.019 0.501252 16.5621 0.500003C17.0928 0.498753 17.5124 0.911047 17.5136 1.46077ZM2.65187 9.07681L21.3371 9.05182V8.61454C21.284 5.92838 19.9363 4.51909 17.5173 4.30919L17.5186 5.27121C17.5186 5.80844 17.1002 6.23448 16.5695 6.23448C16.0265 6.23573 15.618 5.81094 15.618 5.27371L15.6167 4.26172L8.28581 4.27171L8.28704 5.28245C8.28704 5.82094 7.88101 6.24572 7.33798 6.24572C6.79494 6.24697 6.38644 5.82343 6.38644 5.28495L6.3852 4.32294C3.97859 4.56406 2.64693 5.97836 2.65064 8.68825L2.65187 9.07681ZM16.0503 14.7555V14.7693C16.0626 15.344 16.5316 15.78 17.1006 15.7675C17.6559 15.7538 18.099 15.2778 18.0867 14.7031C18.0607 14.1533 17.6152 13.7048 17.0611 13.7061C16.4934 13.7185 16.0491 14.1808 16.0503 14.7555ZM17.0688 20.3654C16.5011 20.3529 16.0432 19.8794 16.042 19.3047C16.0296 18.73 16.4851 18.254 17.0528 18.2402H17.0651C17.6452 18.2402 18.1154 18.7137 18.1154 19.301C18.1166 19.8882 17.6476 20.3642 17.0688 20.3654ZM10.9648 14.7749C10.9895 15.3496 11.4597 15.7982 12.0275 15.7732C12.5828 15.7469 13.0259 15.2722 13.0012 14.6975C12.9876 14.1353 12.531 13.698 11.9756 13.6992C11.4079 13.7242 10.9636 14.2002 10.9648 14.7749ZM12.0323 20.3093C11.4646 20.3343 10.9956 19.8858 10.9697 19.3111C10.9697 18.7364 11.4128 18.2616 11.9805 18.2354C12.5359 18.2341 12.9937 18.6714 13.0061 19.2324C13.032 19.8083 12.5877 20.2831 12.0323 20.3093ZM5.88043 14.8189C5.90512 15.3936 6.37533 15.8434 6.94304 15.8172C7.49842 15.7922 7.94148 15.3162 7.91556 14.7415C7.90322 14.1792 7.44658 13.742 6.88998 13.7432C6.32226 13.7682 5.8792 14.2442 5.88043 14.8189ZM6.94811 20.3161C6.38039 20.3424 5.91141 19.8926 5.88549 19.3179C5.88426 18.7432 6.32856 18.2672 6.89627 18.2422C7.45164 18.2409 7.90952 18.6782 7.92186 19.2404C7.94777 19.8152 7.50471 20.2912 6.94811 20.3161Z" fill="#FF384E"/>
</svg>
