<svg width="24" height="24" viewBox="0 0 24 24" fill="none" xmlns="http://www.w3.org/2000/svg">
<path d="M17.4925 5.48563C17.2283 5.49187 16.9772 5.60247 16.7943 5.79325L12.0013 10.5862L7.20834 5.79325C7.11503 5.69734 7.00343 5.62112 6.88014 5.56912C6.75685 5.51712 6.62437 5.49039 6.49056 5.49051C6.29171 5.49076 6.09745 5.55028 5.93259 5.66147C5.76773 5.77266 5.63976 5.93046 5.56503 6.11474C5.49029 6.29901 5.47218 6.50137 5.51302 6.69599C5.55385 6.8906 5.65177 7.06862 5.79428 7.20731L10.5872 12.0003L5.79428 16.7933C5.6983 16.8854 5.62168 16.9958 5.56889 17.1179C5.51611 17.24 5.48822 17.3715 5.48687 17.5045C5.48551 17.6375 5.51072 17.7695 5.56101 17.8927C5.6113 18.0159 5.68566 18.1278 5.77974 18.2219C5.87382 18.3159 5.98572 18.3903 6.1089 18.4406C6.23208 18.4909 6.36405 18.5161 6.49709 18.5147C6.63013 18.5134 6.76157 18.4855 6.8837 18.4327C7.00582 18.3799 7.11619 18.3033 7.20834 18.2073L12.0013 13.4143L16.7943 18.2073C16.8864 18.3033 16.9968 18.3799 17.1189 18.4327C17.241 18.4855 17.3725 18.5134 17.5055 18.5147C17.6386 18.5161 17.7705 18.4909 17.8937 18.4406C18.0169 18.3903 18.1288 18.3159 18.2229 18.2219C18.317 18.1278 18.3913 18.0159 18.4416 17.8927C18.4919 17.7695 18.5171 17.6375 18.5157 17.5045C18.5144 17.3715 18.4865 17.24 18.4337 17.1179C18.3809 16.9958 18.3043 16.8854 18.2083 16.7933L13.4154 12.0003L18.2083 7.20731C18.3539 7.06778 18.4538 6.88753 18.4951 6.69019C18.5363 6.49286 18.517 6.28766 18.4396 6.1015C18.3622 5.91535 18.2304 5.75693 18.0614 5.64703C17.8923 5.53713 17.6941 5.48087 17.4925 5.48563Z" fill="#637394"/>
</svg>
