<svg width="17" height="27" viewBox="0 0 17 27" fill="none" xmlns="http://www.w3.org/2000/svg">
<path d="M6.482 26.9V23.42H10.426V26.9H6.482ZM6.482 3.729V0.248998H10.426V3.729H6.482ZM8.483 24.435C6.98467 24.435 5.64583 24.1595 4.4665 23.6085C3.28717 23.0478 2.32533 22.26 1.581 21.245C0.836667 20.2203 0.363 19.012 0.16 17.62L4.075 17.011C4.336 18.1517 4.88217 19.0603 5.7135 19.737C6.5545 20.4137 7.555 20.752 8.715 20.752C9.80733 20.752 10.7112 20.4958 11.4265 19.9835C12.1515 19.4712 12.514 18.838 12.514 18.084C12.514 17.5717 12.3545 17.1512 12.0355 16.8225C11.7262 16.4842 11.238 16.2087 10.571 15.996L5.409 14.401C2.43167 13.4827 0.943 11.6653 0.943 8.949C0.943 7.673 1.24267 6.56617 1.842 5.6285C2.451 4.69083 3.3065 3.97067 4.4085 3.468C5.52017 2.95567 6.83 2.70433 8.338 2.714C9.72033 2.73333 10.948 2.98467 12.021 3.468C13.094 3.94167 13.9882 4.63283 14.7035 5.5415C15.4285 6.4405 15.9553 7.53767 16.284 8.833L12.224 9.558C12.0887 8.93933 11.8373 8.398 11.47 7.934C11.1027 7.46033 10.6435 7.093 10.0925 6.832C9.55117 6.56133 8.947 6.41633 8.28 6.397C7.642 6.37767 7.062 6.4695 6.54 6.6725C6.02767 6.8755 5.61683 7.16067 5.3075 7.528C5.00783 7.88567 4.858 8.29167 4.858 8.746C4.858 9.24867 5.07067 9.68367 5.496 10.051C5.92133 10.4087 6.598 10.718 7.526 10.979L11.209 12.023C13.0553 12.5547 14.3845 13.2748 15.1965 14.1835C16.0182 15.0922 16.429 16.2957 16.429 17.794C16.429 19.1087 16.0955 20.2638 15.4285 21.2595C14.7615 22.2552 13.8287 23.0333 12.63 23.594C11.441 24.1547 10.0587 24.435 8.483 24.435Z" fill="#FF384E"/>
</svg>
