<svg width="28" height="28" viewBox="0 0 28 28" fill="none" xmlns="http://www.w3.org/2000/svg">
<path fill-rule="evenodd" clip-rule="evenodd" d="M24.7449 9.21566V18.7252C24.7449 22.2485 22.5399 24.7335 19.0166 24.7335H8.92492C5.40159 24.7335 3.20825 22.2485 3.20825 18.7252V9.21566C3.20825 5.69233 5.41325 3.2085 8.92492 3.2085H19.0166C22.5399 3.2085 24.7449 5.69233 24.7449 9.21566Z" stroke="#A6A6A6" stroke-width="1.5" stroke-linecap="round" stroke-linejoin="round"/>
<path d="M6.16138 19.1692L7.94404 17.2874C8.56354 16.6305 9.59604 16.599 10.254 17.2174C10.2739 17.2372 11.3472 18.328 11.3472 18.328C11.9947 18.9872 13.0529 18.9977 13.712 18.3514C13.7552 18.3094 16.435 15.059 16.435 15.059C17.1257 14.2202 18.3659 14.1 19.2059 14.7919C19.2619 14.8385 21.7935 17.4367 21.7935 17.4367" stroke="#A6A6A6" stroke-width="1.5" stroke-linecap="round" stroke-linejoin="round"/>
<path fill-rule="evenodd" clip-rule="evenodd" d="M12.0314 10.6552C12.0314 11.7857 11.1156 12.7016 9.98505 12.7016C8.85455 12.7016 7.93872 11.7857 7.93872 10.6552C7.93872 9.52472 8.85455 8.60889 9.98505 8.60889C11.1156 8.61005 12.0314 9.52472 12.0314 10.6552Z" stroke="#A6A6A6" stroke-width="1.5" stroke-linecap="round" stroke-linejoin="round"/>
</svg>
