<svg width="34" height="34" viewBox="0 0 34 34" fill="none" xmlns="http://www.w3.org/2000/svg">
<path d="M24.5 0.75H9.5C7.18012 0.752482 4.95596 1.67515 3.31556 3.31556C1.67515 4.95596 0.752482 7.18012 0.75 9.5V24.5C0.752482 26.8199 1.67515 29.044 3.31556 30.6844C4.95596 32.3249 7.18012 33.2475 9.5 33.25H24.5C26.8199 33.2475 29.044 32.3249 30.6844 30.6844C32.3249 29.044 33.2475 26.8199 33.25 24.5V9.5C33.2475 7.18012 32.3249 4.95596 30.6844 3.31556C29.044 1.67515 26.8199 0.752482 24.5 0.75ZM17 24.5C15.5166 24.5 14.0666 24.0601 12.8332 23.236C11.5999 22.4119 10.6386 21.2406 10.0709 19.8701C9.50325 18.4997 9.35472 16.9917 9.64411 15.5368C9.9335 14.082 10.6478 12.7456 11.6967 11.6967C12.7456 10.6478 14.082 9.9335 15.5368 9.64411C16.9917 9.35472 18.4997 9.50325 19.8701 10.0709C21.2406 10.6386 22.4119 11.5999 23.236 12.8332C24.0601 14.0666 24.5 15.5166 24.5 17C24.4979 18.9885 23.7071 20.8949 22.301 22.301C20.8949 23.7071 18.9885 24.4979 17 24.5ZM26.375 9.5C26.0042 9.5 25.6416 9.39003 25.3333 9.18401C25.025 8.97798 24.7846 8.68514 24.6427 8.34253C24.5008 7.99992 24.4637 7.62292 24.536 7.2592C24.6084 6.89549 24.787 6.5614 25.0492 6.29917C25.3114 6.03695 25.6455 5.85837 26.0092 5.78603C26.3729 5.71368 26.7499 5.75081 27.0925 5.89273C27.4351 6.03464 27.728 6.27496 27.934 6.58331C28.14 6.89165 28.25 7.25416 28.25 7.625C28.25 8.12228 28.0525 8.59919 27.7008 8.95083C27.3492 9.30246 26.8723 9.5 26.375 9.5ZM22 17C22 17.9889 21.7068 18.9556 21.1573 19.7779C20.6079 20.6001 19.827 21.241 18.9134 21.6194C17.9998 21.9978 16.9945 22.0969 16.0245 21.9039C15.0546 21.711 14.1637 21.2348 13.4645 20.5355C12.7652 19.8363 12.289 18.9454 12.0961 17.9755C11.9031 17.0055 12.0022 16.0002 12.3806 15.0866C12.759 14.173 13.3999 13.3921 14.2221 12.8427C15.0444 12.2932 16.0111 12 17 12C18.3261 12 19.5979 12.5268 20.5355 13.4645C21.4732 14.4021 22 15.6739 22 17Z" fill="white"/>
</svg>
