<svg width="34" height="34" viewBox="0 0 34 34" fill="none" xmlns="http://www.w3.org/2000/svg">
<path d="M23.9833 0.333008H10.0166C3.94992 0.333008 0.333252 3.94967 0.333252 10.0163V23.9663C0.333252 30.0497 3.94992 33.6663 10.0166 33.6663H23.9666C30.0333 33.6663 33.6499 30.0497 33.6499 23.983V10.0163C33.6666 3.94967 30.0499 0.333008 23.9833 0.333008ZM10.6333 24.9497C10.5999 24.9497 10.5499 24.9497 10.5166 24.9497C8.89992 24.7997 7.38325 24.0497 6.24992 22.8497C3.58325 20.0497 3.58325 15.4997 6.24992 12.6997L9.89992 8.86634C11.1999 7.49967 12.9499 6.73301 14.8166 6.73301C16.6833 6.73301 18.4333 7.48301 19.7333 8.86634C22.3999 11.6663 22.3999 16.2163 19.7333 19.0163L17.9166 20.933C17.4333 21.433 16.6499 21.4497 16.1499 20.983C15.6499 20.4997 15.6333 19.7163 16.0999 19.2163L17.9166 17.2997C19.6833 15.4497 19.6833 12.433 17.9166 10.5997C16.2666 8.86634 13.3666 8.86634 11.6999 10.5997L8.04992 14.433C6.28325 16.283 6.28325 19.2997 8.04992 21.133C8.76659 21.8997 9.73325 22.3663 10.7499 22.4663C11.4333 22.533 11.9333 23.1497 11.8666 23.833C11.8166 24.4663 11.2666 24.9497 10.6333 24.9497ZM27.7499 21.3163L24.0999 25.1497C22.7999 26.5163 21.0499 27.283 19.1833 27.283C17.3166 27.283 15.5666 26.533 14.2666 25.1497C11.5999 22.3497 11.5999 17.7997 14.2666 14.9997L16.0833 13.083C16.5666 12.583 17.3499 12.5663 17.8499 13.033C18.3499 13.5163 18.3666 14.2997 17.8999 14.7997L16.0833 16.7163C14.3166 18.5663 14.3166 21.583 16.0833 23.4163C17.7333 25.1497 20.6333 25.1663 22.2999 23.4163L25.9499 19.583C27.7166 17.733 27.7166 14.7163 25.9499 12.883C25.2333 12.1163 24.2666 11.6497 23.2499 11.5497C22.5666 11.483 22.0666 10.8663 22.1333 10.183C22.1999 9.49967 22.7999 8.98301 23.4999 9.06634C25.1166 9.23301 26.6332 9.96634 27.7666 11.1663C30.4166 13.9497 30.4166 18.5163 27.7499 21.3163Z" fill="white"/>
</svg>
