<svg width="34" height="34" viewBox="0 0 34 34" fill="none" xmlns="http://www.w3.org/2000/svg">
<path d="M17.0017 0.333008C26.2066 0.333008 33.6683 7.79467 33.6683 16.9997C33.6683 26.2047 26.2066 33.6663 17.0017 33.6663C14.0563 33.6711 11.1627 32.8916 8.61832 31.408L0.341651 33.6663L2.59498 25.3863C1.11014 22.8411 0.330064 19.9463 0.334984 16.9997C0.334984 7.79467 7.79665 0.333008 17.0017 0.333008ZM11.3217 9.16634L10.9883 9.17967C10.7725 9.19282 10.5616 9.24951 10.3683 9.34634C10.1875 9.44872 10.0225 9.57672 9.87832 9.72634C9.67832 9.91467 9.56498 10.078 9.44332 10.2363C8.82685 11.0378 8.49494 12.0219 8.49998 13.033C8.50332 13.8497 8.71665 14.6447 9.04998 15.388C9.73165 16.8913 10.8533 18.483 12.3333 19.958C12.69 20.313 13.04 20.6697 13.4167 21.0013C15.2556 22.6204 17.4471 23.7881 19.8167 24.4113L20.7633 24.5563C21.0717 24.573 21.38 24.5497 21.69 24.5347C22.1754 24.5096 22.6493 24.3782 23.0783 24.1497C23.2966 24.0373 23.5096 23.9149 23.7167 23.783C23.7167 23.783 23.7883 23.7363 23.925 23.633C24.15 23.4663 24.2883 23.348 24.475 23.153C24.6133 23.0097 24.7333 22.8413 24.825 22.6497C24.955 22.378 25.085 21.8597 25.1383 21.428C25.1783 21.098 25.1666 20.918 25.1616 20.8063C25.155 20.628 25.0067 20.443 24.845 20.3647L23.875 19.9297C23.875 19.9297 22.425 19.298 21.5383 18.8947C21.4455 18.8542 21.3461 18.831 21.245 18.8263C21.131 18.8146 21.0157 18.8275 20.9071 18.864C20.7984 18.9005 20.6988 18.9598 20.615 19.038C20.6066 19.0347 20.495 19.1297 19.29 20.5897C19.2208 20.6826 19.1256 20.7528 19.0163 20.7914C18.9071 20.83 18.7888 20.8352 18.6766 20.8063C18.5681 20.7772 18.4617 20.7405 18.3583 20.6963C18.1516 20.6097 18.08 20.5763 17.9383 20.5163C16.9818 20.0989 16.0961 19.5349 15.3133 18.8447C15.1033 18.6613 14.9083 18.4613 14.7083 18.268C14.0526 17.6401 13.4812 16.9297 13.0083 16.1547L12.91 15.9963C12.8394 15.8899 12.7823 15.7752 12.74 15.6547C12.6767 15.4097 12.8417 15.213 12.8417 15.213C12.8417 15.213 13.2467 14.7697 13.435 14.5297C13.6183 14.2963 13.7733 14.0697 13.8733 13.908C14.07 13.5913 14.1317 13.2663 14.0283 13.0147C13.5617 11.8747 13.0783 10.7397 12.5817 9.61301C12.4833 9.38967 12.1917 9.22967 11.9267 9.19801C11.8367 9.18801 11.7466 9.17801 11.6566 9.17134C11.4328 9.16022 11.2085 9.16245 10.985 9.17801L11.32 9.16467L11.3217 9.16634Z" fill="white"/>
</svg>
