<svg width="30" height="30" viewBox="0 0 30 30" fill="none" xmlns="http://www.w3.org/2000/svg">
<circle opacity="0.1" cx="15" cy="15" r="15" fill="#577590"/>
<g clip-path="url(#clip0_224_1030)">
<path d="M21 13.6667C21 18.3334 15 22.3334 15 22.3334C15 22.3334 9 18.3334 9 13.6667C9 12.0754 9.63214 10.5493 10.7574 9.42411C11.8826 8.29889 13.4087 7.66675 15 7.66675C16.5913 7.66675 18.1174 8.29889 19.2426 9.42411C20.3679 10.5493 21 12.0754 21 13.6667Z" stroke="#577590" stroke-width="1.5" stroke-linecap="round" stroke-linejoin="round"/>
<path d="M15 15.6667C16.1046 15.6667 17 14.7713 17 13.6667C17 12.5622 16.1046 11.6667 15 11.6667C13.8954 11.6667 13 12.5622 13 13.6667C13 14.7713 13.8954 15.6667 15 15.6667Z" stroke="#577590" stroke-width="1.5" stroke-linecap="round" stroke-linejoin="round"/>
</g>
<defs>
<clipPath id="clip0_224_1030">
<rect width="16" height="16" fill="white" transform="translate(7 7)"/>
</clipPath>
</defs>
</svg>
