<svg width="30" height="30" viewBox="0 0 30 30" fill="none" xmlns="http://www.w3.org/2000/svg">
<circle opacity="0.1" cx="15" cy="15" r="15" fill="#90BE6D"/>
<path d="M20.4444 8H9.55556C8.69645 8 8 8.69645 8 9.55556V20.4444C8 21.3036 8.69645 22 9.55556 22H20.4444C21.3036 22 22 21.3036 22 20.4444V9.55556C22 8.69645 21.3036 8 20.4444 8Z" stroke="#90BE6D" stroke-width="1.5" stroke-linecap="round" stroke-linejoin="round"/>
<path d="M12.2779 13.4447C12.9222 13.4447 13.4445 12.9223 13.4445 12.278C13.4445 11.6337 12.9222 11.1113 12.2779 11.1113C11.6335 11.1113 11.1112 11.6337 11.1112 12.278C11.1112 12.9223 11.6335 13.4447 12.2779 13.4447Z" stroke="#90BE6D" stroke-width="1.5" stroke-linecap="round" stroke-linejoin="round"/>
<path d="M22.0001 17.3332L18.1112 13.4443L9.55566 21.9999" stroke="#90BE6D" stroke-width="1.5" stroke-linecap="round" stroke-linejoin="round"/>
</svg>
