<svg width="30" height="30" viewBox="0 0 30 30" fill="none" xmlns="http://www.w3.org/2000/svg">
<circle opacity="0.1" cx="15" cy="15" r="15" fill="#43AA8B"/>
<path d="M24.3333 14.3333H22.2933H20.94C20.6267 12.44 18.98 11 17 11C15.02 11 13.3733 12.44 13.06 14.3333H11.7067H5.66667C5.3 14.3333 5 14.6333 5 15C5 15.3667 5.3 15.6667 5.66667 15.6667H11.7067H13.06C13.3733 17.56 15.02 19 17 19C18.98 19 20.6267 17.56 20.94 15.6667H22.2933H24.3333C24.7 15.6667 25 15.3667 25 15C25 14.6333 24.7 14.3333 24.3333 14.3333Z" fill="#43AA8B"/>
</svg>
