<svg width="126" height="86" viewBox="0 0 126 86" fill="none" xmlns="http://www.w3.org/2000/svg">
<g filter="url(#filter0_d_15_193)">
<rect x="13" y="8" width="100" height="60" rx="7" fill="url(#paint0_linear_15_193)"/>
</g>
<path fill-rule="evenodd" clip-rule="evenodd" d="M51 38.5698C51 44.7844 55.5135 49.9521 61.4167 51V41.9719H58.2917V38.5H61.4167V35.7219C61.4167 32.5969 63.4302 30.8615 66.2781 30.8615C67.1802 30.8615 68.1531 31 69.0552 31.1385V34.3333H67.4583C65.9302 34.3333 65.5833 35.0969 65.5833 36.0698V38.5H68.9167L68.3615 41.9719H65.5833V51C71.4865 49.9521 76 44.7854 76 38.5698C76 31.6562 70.375 26 63.5 26C56.625 26 51 31.6562 51 38.5698Z" fill="white"/>
<defs>
<filter id="filter0_d_15_193" x="0" y="0" width="126" height="86" filterUnits="userSpaceOnUse" color-interpolation-filters="sRGB">
<feFlood flood-opacity="0" result="BackgroundImageFix"/>
<feColorMatrix in="SourceAlpha" type="matrix" values="0 0 0 0 0 0 0 0 0 0 0 0 0 0 0 0 0 0 127 0" result="hardAlpha"/>
<feOffset dy="5"/>
<feGaussianBlur stdDeviation="6.5"/>
<feColorMatrix type="matrix" values="0 0 0 0 0.14902 0 0 0 0 0.231373 0 0 0 0 0.65098 0 0 0 0.3 0"/>
<feBlend mode="normal" in2="BackgroundImageFix" result="effect1_dropShadow_15_193"/>
<feBlend mode="normal" in="SourceGraphic" in2="effect1_dropShadow_15_193" result="shape"/>
</filter>
<linearGradient id="paint0_linear_15_193" x1="13" y1="38" x2="113" y2="38" gradientUnits="userSpaceOnUse">
<stop stop-color="#263DA9"/>
<stop offset="1" stop-color="#263BA6"/>
</linearGradient>
</defs>
</svg>
