<svg width="126" height="86" viewBox="0 0 126 86" fill="none" xmlns="http://www.w3.org/2000/svg">
<g filter="url(#filter0_d_15_198)">
<rect x="13" y="8" width="100" height="60" rx="7" fill="#E63F3F"/>
</g>
<path fill-rule="evenodd" clip-rule="evenodd" d="M63.5 26C56.5958 26 51 31.5969 51 38.5C51 45.4031 56.5958 51 63.5 51C70.4031 51 76 45.4031 76 38.5C76 31.5969 70.4031 26 63.5 26ZM63.6458 45.8104C59.6167 45.8104 56.3542 42.5396 56.3542 38.5C56.3542 34.4604 59.6167 31.1896 63.6458 31.1896C65.6146 31.1896 67.2604 31.9156 68.5229 33.0948L66.4667 35.1552V35.151C65.701 34.4198 64.7302 34.0448 63.6458 34.0448C61.2396 34.0448 59.2844 36.0823 59.2844 38.4958C59.2844 40.9073 61.2396 42.951 63.6458 42.951C65.8292 42.951 67.3146 41.699 67.6208 39.9802H63.6458V37.1292H70.5052C70.5969 37.6187 70.6458 38.1292 70.6458 38.6646C70.6458 42.8417 67.8573 45.8104 63.6458 45.8104Z" fill="white"/>
<defs>
<filter id="filter0_d_15_198" x="0" y="0" width="126" height="86" filterUnits="userSpaceOnUse" color-interpolation-filters="sRGB">
<feFlood flood-opacity="0" result="BackgroundImageFix"/>
<feColorMatrix in="SourceAlpha" type="matrix" values="0 0 0 0 0 0 0 0 0 0 0 0 0 0 0 0 0 0 127 0" result="hardAlpha"/>
<feOffset dy="5"/>
<feGaussianBlur stdDeviation="6.5"/>
<feColorMatrix type="matrix" values="0 0 0 0 0.9 0 0 0 0 0.2475 0 0 0 0 0.2475 0 0 0 0.2 0"/>
<feBlend mode="normal" in2="BackgroundImageFix" result="effect1_dropShadow_15_198"/>
<feBlend mode="normal" in="SourceGraphic" in2="effect1_dropShadow_15_198" result="shape"/>
</filter>
</defs>
</svg>
